<svg xmlns="http://www.w3.org/2000/svg" xmlns:lucid="lucid" width="462" height="462"><g lucid:page-tab-id="0_0"><path d="M441 231c0 115.98-94.02 210-210 210S21 346.98 21 231 115.02 21 231 21s210 94.02 210 210z" stroke="#000" stroke-opacity="0" stroke-width="2" fill="#5854c1"/><path d="M411 231c0 99.4-80.6 180-180 180S51 330.4 51 231 131.6 51 231 51s180 80.6 180 180z" stroke="#5854c1" stroke-width="10" fill="#dedeff"/><path d="M136 161h154v-20l36 40-36 40v-20H136zM136 261h154v-20l36 40-36 40v-20H136z" stroke="#5854c1" stroke-width="3" fill="#5854c1"/></g></svg>